<svg width="203" height="382" viewBox="0 0 203 382" fill="none" xmlns="http://www.w3.org/2000/svg">
<path d="M188.625 25.3253C187.12 25.921 185.247 26.438 184.559 28.0354C184.526 28.1116 184.497 28.1891 184.472 28.2679C184.447 28.3466 184.426 28.4261 184.409 28.5066C184.392 28.5869 184.38 28.6677 184.371 28.7489C184.363 28.8301 184.359 28.9114 184.359 28.9925C184.36 29.0738 184.364 29.1547 184.373 29.2352C184.381 29.3156 184.394 29.3953 184.411 29.4741C184.429 29.5529 184.45 29.6304 184.476 29.7067C184.501 29.783 184.531 29.8577 184.564 29.9307C184.599 30.0039 184.638 30.0751 184.681 30.1442C184.724 30.213 184.771 30.2792 184.822 30.3428C184.872 30.4068 184.926 30.4678 184.984 30.5256C185.042 30.5835 185.102 30.6382 185.166 30.6896C185.23 30.7409 185.297 30.7888 185.366 30.8333C185.436 30.8774 185.508 30.9179 185.583 30.9547C185.657 30.9913 185.733 31.024 185.812 31.0529C185.89 31.0816 185.97 31.1061 186.052 31.1264C186.658 31.2829 187.287 31.2089 187.888 31.0027C189.404 30.4823 190.818 29.4889 192.204 28.694C193.841 27.7722 195.488 26.8658 197.143 25.9749C198.463 25.233 200.016 24.575 201.217 23.6664C201.853 23.1858 202.593 22.3887 202.598 21.5649C202.6 21.215 202.516 20.9769 202.199 20.7921C201.592 20.4383 200.544 20.6244 199.881 20.7766C198.299 21.1401 196.716 21.9394 195.217 22.5747C193.029 23.5134 190.831 24.4303 188.625 25.3253Z" fill="white"/>
<path d="M186.3 0.782086C184.184 1.97183 183.081 3.43122 182.093 5.49146C181.131 7.49761 177.853 13.4719 178.617 15.2066C178.934 15.9269 179.647 16.2353 180.39 16.4648C180.78 16.4634 181.139 16.4625 181.523 16.3543C184.196 15.5994 185.351 6.96525 186.346 4.51168C186.537 4.04036 186.848 3.62289 187.121 3.18921C187.416 2.71995 187.826 2.11275 187.607 1.57751C187.394 1.05787 186.812 0.925479 186.3 0.782086Z" fill="white"/>
<path d="M167.193 -2.22515e-05C167.083 0.0383301 166.972 0.0751605 166.865 0.120486C166.539 0.258297 166.231 0.445906 166.168 0.878649C166.043 1.73751 169.386 12.5349 170.034 13.4637C170.444 14.0525 170.877 14.1947 171.446 14.3977C171.613 14.3703 171.78 14.3454 171.94 14.2929C172.447 14.1266 172.941 13.8155 173.122 13.2253C173.387 12.3658 172.76 10.9199 172.411 10.0252C171.492 7.67389 169.127 1.16191 167.193 -2.22515e-05Z" fill="white"/>
<path d="M-1.39774e-05 375.076C0.170676 374.459 0.31169 374.122 0.720736 373.603C2.07523 373.136 3.58232 374.068 4.84831 374.595C11.0843 377.192 30.6897 375.939 37.747 374.447C41.6704 373.617 45.6522 372.298 49.1846 370.404C50.7584 369.56 52.357 368.59 53.7565 367.482C55.9725 365.73 58.3516 362.669 61.2049 362.054C61.8929 361.906 62.6326 361.937 63.1992 362.396C64.256 363.253 64.3862 364.569 64.4968 365.819C63.6823 368.568 61.7311 370.568 59.5313 372.349C48.1163 381.59 32.7493 381.897 18.7662 380.583C13.4966 380.088 3.51361 379.272 -1.39774e-05 375.076Z" fill="white"/>
<path d="M11.2939 364.978C11.4629 364.278 11.5566 363.621 12.0539 363.05C13.9379 362.331 18.2691 363.397 20.547 363.334C25.6504 363.192 30.618 362.71 35.4994 361.197C37.7257 360.507 42.8034 357.772 44.8825 358.33C46.0737 358.65 46.5232 359.511 47.0615 360.483C46.9844 361.455 46.9318 362.174 46.1958 362.925C43.0058 366.179 31.0991 367.425 26.5789 367.486C23.0523 367.533 13.8377 367.314 11.2939 364.978Z" fill="white"/>
</svg>
