<svg width="63" height="51" viewBox="0 0 63 51" fill="none" xmlns="http://www.w3.org/2000/svg">
<path d="M24.2839 10.376C26.8104 8.74683 30.4165 7.94305 33.2243 6.72159C35.6143 5.68231 46.5121 0.220639 47.7167 0.0394717C48.5415 -0.0845522 49.2389 0.0744264 49.8903 0.641064C50.5224 1.19039 50.9029 2.19158 51.1591 2.96555C53.2704 9.35073 54.6881 16.1554 56.4071 22.6664C57.5824 27.1159 62.1967 42.4585 62.1659 45.8151C62.1584 46.6881 61.7884 47.6182 61.1563 48.2074C60.1077 49.187 58.2381 50.3819 56.7549 50.1962C55.8962 50.0885 55.1355 49.5578 54.5319 48.9483C53.1494 47.5526 52.0894 45.7034 50.8467 44.1685C46.4132 38.6937 42.2638 32.9974 37.8295 27.5267C36.0242 25.386 29.2575 18.2711 28.7095 16.1421C28.9977 15.8991 29.0431 15.7428 29.4521 15.7703C33.4883 16.0401 50.8135 36.231 54.2951 40.1537C53.1629 36.7773 52.393 33.2509 51.5192 29.8026C49.6406 22.3899 47.9233 14.934 45.9091 7.55542C41.442 9.91029 32.1221 13.1064 27.0624 13.178C26.1146 13.1919 25.3809 13.0838 24.658 12.4125C24.2618 11.6669 24.2513 11.2067 24.2839 10.376Z" fill="white"/>
<path d="M10.2278 17.698C10.7402 17.4409 11.6046 17.0474 12.1862 17.1646C13.0555 17.3395 13.9913 18.3856 14.5526 19.0076C16.4538 21.1151 31.8878 41.0151 32.3787 42.1988C32.7429 43.0756 32.8272 43.8951 32.4343 44.7951C32.0746 45.6171 31.3455 46.2514 30.4983 46.5451C27.9209 47.4392 9.48092 41.9961 6.38588 40.5186C5.78863 40.2333 5.19299 39.7655 5.08682 39.0768C4.9886 38.4417 5.18074 38.1447 5.49271 37.6283C7.12755 36.6607 9.58539 37.5356 11.3194 37.9052C15.2495 38.1145 19.1763 38.7881 22.9905 39.6723C19.3076 35.5754 15.2353 29.1246 12.0625 24.4453C9.9161 29.1889 6.76637 34.7985 3.06276 38.4867C2.43538 39.1123 1.8196 39.6074 0.894004 39.6019C0.391157 39.2597 0.17736 39.1303 0.02811 38.4964C-0.125148 37.8463 0.387097 36.8543 0.664483 36.2491C2.52037 32.2099 4.86964 28.318 6.91907 24.3624C8.05092 22.1795 8.86558 19.7442 10.2278 17.698Z" fill="white"/>
</svg>
